<mxfile host="app.diagrams.net" modified="2023-11-14T23:01:42.293Z" agent="Mozilla/5.0 (Windows NT 10.0; Win64; x64) AppleWebKit/537.36 (KHTML, like Gecko) Chrome/119.0.0.0 Safari/537.36" etag="Kb3fINwHywO-oqI4thQh" version="22.1.1" type="device">
  <diagram name="Page-1" id="t4lPPtRgDo_9rfqdmDsg">
    <mxGraphModel dx="1520" dy="922" grid="1" gridSize="10" guides="1" tooltips="1" connect="1" arrows="1" fold="1" page="1" pageScale="1" pageWidth="850" pageHeight="1100" math="0" shadow="0">
      <root>
        <mxCell id="0" />
        <mxCell id="1" parent="0" />
        <mxCell id="uAQ3JE1oHATD7uZ8K5fC-1" value="Users" style="swimlane;fontStyle=0;childLayout=stackLayout;horizontal=1;startSize=26;horizontalStack=0;resizeParent=1;resizeParentMax=0;resizeLast=0;collapsible=1;marginBottom=0;align=center;fontSize=14;" vertex="1" parent="1">
          <mxGeometry x="40" y="40" width="160" height="296" as="geometry" />
        </mxCell>
        <mxCell id="uAQ3JE1oHATD7uZ8K5fC-2" value="_id: pk, auto&lt;br&gt;" style="text;strokeColor=#666666;fillColor=#f5f5f5;spacingLeft=4;spacingRight=4;overflow=hidden;rotatable=0;points=[[0,0.5],[1,0.5]];portConstraint=eastwest;fontSize=12;whiteSpace=wrap;html=1;fontColor=#333333;" vertex="1" parent="uAQ3JE1oHATD7uZ8K5fC-1">
          <mxGeometry y="26" width="160" height="30" as="geometry" />
        </mxCell>
        <mxCell id="uAQ3JE1oHATD7uZ8K5fC-3" value="fullname: string, req" style="text;strokeColor=#666666;fillColor=#f5f5f5;spacingLeft=4;spacingRight=4;overflow=hidden;rotatable=0;points=[[0,0.5],[1,0.5]];portConstraint=eastwest;fontSize=12;whiteSpace=wrap;html=1;fontColor=#333333;" vertex="1" parent="uAQ3JE1oHATD7uZ8K5fC-1">
          <mxGeometry y="56" width="160" height="30" as="geometry" />
        </mxCell>
        <mxCell id="uAQ3JE1oHATD7uZ8K5fC-7" value="password: string, req" style="text;strokeColor=#666666;fillColor=#f5f5f5;spacingLeft=4;spacingRight=4;overflow=hidden;rotatable=0;points=[[0,0.5],[1,0.5]];portConstraint=eastwest;fontSize=12;whiteSpace=wrap;html=1;fontColor=#333333;" vertex="1" parent="uAQ3JE1oHATD7uZ8K5fC-1">
          <mxGeometry y="86" width="160" height="30" as="geometry" />
        </mxCell>
        <mxCell id="uAQ3JE1oHATD7uZ8K5fC-5" value="email: string, unique" style="text;strokeColor=#666666;fillColor=#f5f5f5;spacingLeft=4;spacingRight=4;overflow=hidden;rotatable=0;points=[[0,0.5],[1,0.5]];portConstraint=eastwest;fontSize=12;whiteSpace=wrap;html=1;fontColor=#333333;" vertex="1" parent="uAQ3JE1oHATD7uZ8K5fC-1">
          <mxGeometry y="116" width="160" height="30" as="geometry" />
        </mxCell>
        <mxCell id="uAQ3JE1oHATD7uZ8K5fC-6" value="phone: string" style="text;strokeColor=#666666;fillColor=#f5f5f5;spacingLeft=4;spacingRight=4;overflow=hidden;rotatable=0;points=[[0,0.5],[1,0.5]];portConstraint=eastwest;fontSize=12;whiteSpace=wrap;html=1;fontColor=#333333;" vertex="1" parent="uAQ3JE1oHATD7uZ8K5fC-1">
          <mxGeometry y="146" width="160" height="30" as="geometry" />
        </mxCell>
        <mxCell id="uAQ3JE1oHATD7uZ8K5fC-9" value="province: string" style="text;strokeColor=#666666;fillColor=#f5f5f5;spacingLeft=4;spacingRight=4;overflow=hidden;rotatable=0;points=[[0,0.5],[1,0.5]];portConstraint=eastwest;fontSize=12;whiteSpace=wrap;html=1;fontColor=#333333;" vertex="1" parent="uAQ3JE1oHATD7uZ8K5fC-1">
          <mxGeometry y="176" width="160" height="30" as="geometry" />
        </mxCell>
        <mxCell id="uAQ3JE1oHATD7uZ8K5fC-8" value="district: string" style="text;strokeColor=#666666;fillColor=#f5f5f5;spacingLeft=4;spacingRight=4;overflow=hidden;rotatable=0;points=[[0,0.5],[1,0.5]];portConstraint=eastwest;fontSize=12;whiteSpace=wrap;html=1;fontColor=#333333;" vertex="1" parent="uAQ3JE1oHATD7uZ8K5fC-1">
          <mxGeometry y="206" width="160" height="30" as="geometry" />
        </mxCell>
        <mxCell id="uAQ3JE1oHATD7uZ8K5fC-4" value="subdistrict: string" style="text;strokeColor=#666666;fillColor=#f5f5f5;spacingLeft=4;spacingRight=4;overflow=hidden;rotatable=0;points=[[0,0.5],[1,0.5]];portConstraint=eastwest;fontSize=12;whiteSpace=wrap;html=1;fontColor=#333333;" vertex="1" parent="uAQ3JE1oHATD7uZ8K5fC-1">
          <mxGeometry y="236" width="160" height="30" as="geometry" />
        </mxCell>
        <mxCell id="uAQ3JE1oHATD7uZ8K5fC-10" value="zipcode" style="text;strokeColor=#666666;fillColor=#f5f5f5;spacingLeft=4;spacingRight=4;overflow=hidden;rotatable=0;points=[[0,0.5],[1,0.5]];portConstraint=eastwest;fontSize=12;whiteSpace=wrap;html=1;fontColor=#333333;" vertex="1" parent="uAQ3JE1oHATD7uZ8K5fC-1">
          <mxGeometry y="266" width="160" height="30" as="geometry" />
        </mxCell>
        <mxCell id="uAQ3JE1oHATD7uZ8K5fC-11" value="Reviews" style="swimlane;fontStyle=0;childLayout=stackLayout;horizontal=1;startSize=26;horizontalStack=0;resizeParent=1;resizeParentMax=0;resizeLast=0;collapsible=1;marginBottom=0;align=center;fontSize=14;" vertex="1" parent="1">
          <mxGeometry x="265" y="40" width="160" height="176" as="geometry" />
        </mxCell>
        <mxCell id="uAQ3JE1oHATD7uZ8K5fC-12" value="_id: pk, auto" style="text;strokeColor=#666666;fillColor=#f5f5f5;spacingLeft=4;spacingRight=4;overflow=hidden;rotatable=0;points=[[0,0.5],[1,0.5]];portConstraint=eastwest;fontSize=12;whiteSpace=wrap;html=1;fontColor=#333333;" vertex="1" parent="uAQ3JE1oHATD7uZ8K5fC-11">
          <mxGeometry y="26" width="160" height="30" as="geometry" />
        </mxCell>
        <mxCell id="uAQ3JE1oHATD7uZ8K5fC-13" value="_userId:int, ObjectId" style="text;strokeColor=#666666;fillColor=#f5f5f5;spacingLeft=4;spacingRight=4;overflow=hidden;rotatable=0;points=[[0,0.5],[1,0.5]];portConstraint=eastwest;fontSize=12;whiteSpace=wrap;html=1;fontColor=#333333;" vertex="1" parent="uAQ3JE1oHATD7uZ8K5fC-11">
          <mxGeometry y="56" width="160" height="30" as="geometry" />
        </mxCell>
        <mxCell id="uAQ3JE1oHATD7uZ8K5fC-15" value="_productId: int, ObjectId" style="text;strokeColor=#666666;fillColor=#f5f5f5;spacingLeft=4;spacingRight=4;overflow=hidden;rotatable=0;points=[[0,0.5],[1,0.5]];portConstraint=eastwest;fontSize=12;whiteSpace=wrap;html=1;fontColor=#333333;" vertex="1" parent="uAQ3JE1oHATD7uZ8K5fC-11">
          <mxGeometry y="86" width="160" height="30" as="geometry" />
        </mxCell>
        <mxCell id="uAQ3JE1oHATD7uZ8K5fC-14" value="rating" style="text;strokeColor=#666666;fillColor=#f5f5f5;spacingLeft=4;spacingRight=4;overflow=hidden;rotatable=0;points=[[0,0.5],[1,0.5]];portConstraint=eastwest;fontSize=12;whiteSpace=wrap;html=1;fontColor=#333333;" vertex="1" parent="uAQ3JE1oHATD7uZ8K5fC-11">
          <mxGeometry y="116" width="160" height="30" as="geometry" />
        </mxCell>
        <mxCell id="uAQ3JE1oHATD7uZ8K5fC-16" value="comment" style="text;strokeColor=#666666;fillColor=#f5f5f5;spacingLeft=4;spacingRight=4;overflow=hidden;rotatable=0;points=[[0,0.5],[1,0.5]];portConstraint=eastwest;fontSize=12;whiteSpace=wrap;html=1;fontColor=#333333;" vertex="1" parent="uAQ3JE1oHATD7uZ8K5fC-11">
          <mxGeometry y="146" width="160" height="30" as="geometry" />
        </mxCell>
        <mxCell id="uAQ3JE1oHATD7uZ8K5fC-17" style="edgeStyle=orthogonalEdgeStyle;rounded=0;orthogonalLoop=1;jettySize=auto;html=1;entryX=0;entryY=0.5;entryDx=0;entryDy=0;" edge="1" parent="1" source="uAQ3JE1oHATD7uZ8K5fC-2" target="uAQ3JE1oHATD7uZ8K5fC-13">
          <mxGeometry relative="1" as="geometry">
            <Array as="points">
              <mxPoint x="230" y="81" />
              <mxPoint x="230" y="111" />
            </Array>
          </mxGeometry>
        </mxCell>
        <mxCell id="uAQ3JE1oHATD7uZ8K5fC-18" value="Products" style="swimlane;fontStyle=0;childLayout=stackLayout;horizontal=1;startSize=26;horizontalStack=0;resizeParent=1;resizeParentMax=0;resizeLast=0;collapsible=1;marginBottom=0;align=center;fontSize=14;" vertex="1" parent="1">
          <mxGeometry x="490" y="40" width="190" height="356" as="geometry" />
        </mxCell>
        <mxCell id="uAQ3JE1oHATD7uZ8K5fC-19" value="_id: pk, auto&lt;br&gt;" style="text;strokeColor=#666666;fillColor=#f5f5f5;spacingLeft=4;spacingRight=4;overflow=hidden;rotatable=0;points=[[0,0.5],[1,0.5]];portConstraint=eastwest;fontSize=12;whiteSpace=wrap;html=1;fontColor=#333333;" vertex="1" parent="uAQ3JE1oHATD7uZ8K5fC-18">
          <mxGeometry y="26" width="190" height="30" as="geometry" />
        </mxCell>
        <mxCell id="uAQ3JE1oHATD7uZ8K5fC-20" value="product_name: string, req" style="text;strokeColor=#666666;fillColor=#f5f5f5;spacingLeft=4;spacingRight=4;overflow=hidden;rotatable=0;points=[[0,0.5],[1,0.5]];portConstraint=eastwest;fontSize=12;whiteSpace=wrap;html=1;fontColor=#333333;" vertex="1" parent="uAQ3JE1oHATD7uZ8K5fC-18">
          <mxGeometry y="56" width="190" height="30" as="geometry" />
        </mxCell>
        <mxCell id="uAQ3JE1oHATD7uZ8K5fC-21" value="_category_id: int, ObjectId" style="text;strokeColor=#666666;fillColor=#f5f5f5;spacingLeft=4;spacingRight=4;overflow=hidden;rotatable=0;points=[[0,0.5],[1,0.5]];portConstraint=eastwest;fontSize=12;whiteSpace=wrap;html=1;fontColor=#333333;" vertex="1" parent="uAQ3JE1oHATD7uZ8K5fC-18">
          <mxGeometry y="86" width="190" height="30" as="geometry" />
        </mxCell>
        <mxCell id="uAQ3JE1oHATD7uZ8K5fC-22" value="product_description: string, req" style="text;strokeColor=#666666;fillColor=#f5f5f5;spacingLeft=4;spacingRight=4;overflow=hidden;rotatable=0;points=[[0,0.5],[1,0.5]];portConstraint=eastwest;fontSize=12;whiteSpace=wrap;html=1;fontColor=#333333;" vertex="1" parent="uAQ3JE1oHATD7uZ8K5fC-18">
          <mxGeometry y="116" width="190" height="30" as="geometry" />
        </mxCell>
        <mxCell id="uAQ3JE1oHATD7uZ8K5fC-23" value="_typeId: int, ObjectId" style="text;strokeColor=#666666;fillColor=#f5f5f5;spacingLeft=4;spacingRight=4;overflow=hidden;rotatable=0;points=[[0,0.5],[1,0.5]];portConstraint=eastwest;fontSize=12;whiteSpace=wrap;html=1;fontColor=#333333;" vertex="1" parent="uAQ3JE1oHATD7uZ8K5fC-18">
          <mxGeometry y="146" width="190" height="30" as="geometry" />
        </mxCell>
        <mxCell id="uAQ3JE1oHATD7uZ8K5fC-24" value="product_material: string, req" style="text;strokeColor=#666666;fillColor=#f5f5f5;spacingLeft=4;spacingRight=4;overflow=hidden;rotatable=0;points=[[0,0.5],[1,0.5]];portConstraint=eastwest;fontSize=12;whiteSpace=wrap;html=1;fontColor=#333333;" vertex="1" parent="uAQ3JE1oHATD7uZ8K5fC-18">
          <mxGeometry y="176" width="190" height="30" as="geometry" />
        </mxCell>
        <mxCell id="uAQ3JE1oHATD7uZ8K5fC-25" value="product_rate: number, req" style="text;strokeColor=#666666;fillColor=#f5f5f5;spacingLeft=4;spacingRight=4;overflow=hidden;rotatable=0;points=[[0,0.5],[1,0.5]];portConstraint=eastwest;fontSize=12;whiteSpace=wrap;html=1;fontColor=#333333;" vertex="1" parent="uAQ3JE1oHATD7uZ8K5fC-18">
          <mxGeometry y="206" width="190" height="30" as="geometry" />
        </mxCell>
        <mxCell id="uAQ3JE1oHATD7uZ8K5fC-26" value="product_sold: number,req" style="text;strokeColor=#666666;fillColor=#f5f5f5;spacingLeft=4;spacingRight=4;overflow=hidden;rotatable=0;points=[[0,0.5],[1,0.5]];portConstraint=eastwest;fontSize=12;whiteSpace=wrap;html=1;fontColor=#333333;" vertex="1" parent="uAQ3JE1oHATD7uZ8K5fC-18">
          <mxGeometry y="236" width="190" height="30" as="geometry" />
        </mxCell>
        <mxCell id="uAQ3JE1oHATD7uZ8K5fC-27" value="product_review : number, req" style="text;strokeColor=#666666;fillColor=#f5f5f5;spacingLeft=4;spacingRight=4;overflow=hidden;rotatable=0;points=[[0,0.5],[1,0.5]];portConstraint=eastwest;fontSize=12;whiteSpace=wrap;html=1;fontColor=#333333;" vertex="1" parent="uAQ3JE1oHATD7uZ8K5fC-18">
          <mxGeometry y="266" width="190" height="30" as="geometry" />
        </mxCell>
        <mxCell id="uAQ3JE1oHATD7uZ8K5fC-30" value="product_price: number, req" style="text;strokeColor=#666666;fillColor=#f5f5f5;spacingLeft=4;spacingRight=4;overflow=hidden;rotatable=0;points=[[0,0.5],[1,0.5]];portConstraint=eastwest;fontSize=12;whiteSpace=wrap;html=1;fontColor=#333333;" vertex="1" parent="uAQ3JE1oHATD7uZ8K5fC-18">
          <mxGeometry y="296" width="190" height="30" as="geometry" />
        </mxCell>
        <mxCell id="uAQ3JE1oHATD7uZ8K5fC-29" value="product_image: string, req" style="text;strokeColor=#666666;fillColor=#f5f5f5;spacingLeft=4;spacingRight=4;overflow=hidden;rotatable=0;points=[[0,0.5],[1,0.5]];portConstraint=eastwest;fontSize=12;whiteSpace=wrap;html=1;fontColor=#333333;" vertex="1" parent="uAQ3JE1oHATD7uZ8K5fC-18">
          <mxGeometry y="326" width="190" height="30" as="geometry" />
        </mxCell>
        <mxCell id="uAQ3JE1oHATD7uZ8K5fC-31" style="edgeStyle=orthogonalEdgeStyle;rounded=0;orthogonalLoop=1;jettySize=auto;html=1;entryX=1;entryY=0.5;entryDx=0;entryDy=0;" edge="1" parent="1" source="uAQ3JE1oHATD7uZ8K5fC-19" target="uAQ3JE1oHATD7uZ8K5fC-15">
          <mxGeometry relative="1" as="geometry" />
        </mxCell>
        <mxCell id="uAQ3JE1oHATD7uZ8K5fC-32" value="Product Type" style="swimlane;fontStyle=0;childLayout=stackLayout;horizontal=1;startSize=26;horizontalStack=0;resizeParent=1;resizeParentMax=0;resizeLast=0;collapsible=1;marginBottom=0;align=center;fontSize=14;" vertex="1" parent="1">
          <mxGeometry x="750" y="190" width="160" height="116" as="geometry" />
        </mxCell>
        <mxCell id="uAQ3JE1oHATD7uZ8K5fC-33" value="_id: int, ObjectId" style="text;strokeColor=#666666;fillColor=#f5f5f5;spacingLeft=4;spacingRight=4;overflow=hidden;rotatable=0;points=[[0,0.5],[1,0.5]];portConstraint=eastwest;fontSize=12;whiteSpace=wrap;html=1;fontColor=#333333;" vertex="1" parent="uAQ3JE1oHATD7uZ8K5fC-32">
          <mxGeometry y="26" width="160" height="30" as="geometry" />
        </mxCell>
        <mxCell id="uAQ3JE1oHATD7uZ8K5fC-34" value="type: string, req" style="text;strokeColor=#666666;fillColor=#f5f5f5;spacingLeft=4;spacingRight=4;overflow=hidden;rotatable=0;points=[[0,0.5],[1,0.5]];portConstraint=eastwest;fontSize=12;whiteSpace=wrap;html=1;fontColor=#333333;" vertex="1" parent="uAQ3JE1oHATD7uZ8K5fC-32">
          <mxGeometry y="56" width="160" height="30" as="geometry" />
        </mxCell>
        <mxCell id="uAQ3JE1oHATD7uZ8K5fC-35" value="description: string,req" style="text;strokeColor=#666666;fillColor=#f5f5f5;spacingLeft=4;spacingRight=4;overflow=hidden;rotatable=0;points=[[0,0.5],[1,0.5]];portConstraint=eastwest;fontSize=12;whiteSpace=wrap;html=1;fontColor=#333333;" vertex="1" parent="uAQ3JE1oHATD7uZ8K5fC-32">
          <mxGeometry y="86" width="160" height="30" as="geometry" />
        </mxCell>
        <mxCell id="uAQ3JE1oHATD7uZ8K5fC-36" style="edgeStyle=orthogonalEdgeStyle;rounded=0;orthogonalLoop=1;jettySize=auto;html=1;entryX=1;entryY=0.5;entryDx=0;entryDy=0;" edge="1" parent="1" source="uAQ3JE1oHATD7uZ8K5fC-33" target="uAQ3JE1oHATD7uZ8K5fC-23">
          <mxGeometry relative="1" as="geometry">
            <Array as="points">
              <mxPoint x="720" y="231" />
              <mxPoint x="720" y="200" />
              <mxPoint x="680" y="200" />
            </Array>
          </mxGeometry>
        </mxCell>
        <mxCell id="uAQ3JE1oHATD7uZ8K5fC-41" style="edgeStyle=orthogonalEdgeStyle;rounded=0;orthogonalLoop=1;jettySize=auto;html=1;entryX=1;entryY=0.5;entryDx=0;entryDy=0;" edge="1" parent="1" source="uAQ3JE1oHATD7uZ8K5fC-37" target="uAQ3JE1oHATD7uZ8K5fC-21">
          <mxGeometry relative="1" as="geometry">
            <Array as="points">
              <mxPoint x="720" y="98" />
              <mxPoint x="720" y="141" />
            </Array>
          </mxGeometry>
        </mxCell>
        <mxCell id="uAQ3JE1oHATD7uZ8K5fC-37" value="Product Category" style="swimlane;fontStyle=0;childLayout=stackLayout;horizontal=1;startSize=26;horizontalStack=0;resizeParent=1;resizeParentMax=0;resizeLast=0;collapsible=1;marginBottom=0;align=center;fontSize=14;" vertex="1" parent="1">
          <mxGeometry x="750" y="40" width="160" height="116" as="geometry" />
        </mxCell>
        <mxCell id="uAQ3JE1oHATD7uZ8K5fC-38" value="_id: int, ObjectId" style="text;strokeColor=#666666;fillColor=#f5f5f5;spacingLeft=4;spacingRight=4;overflow=hidden;rotatable=0;points=[[0,0.5],[1,0.5]];portConstraint=eastwest;fontSize=12;whiteSpace=wrap;html=1;fontColor=#333333;" vertex="1" parent="uAQ3JE1oHATD7uZ8K5fC-37">
          <mxGeometry y="26" width="160" height="30" as="geometry" />
        </mxCell>
        <mxCell id="uAQ3JE1oHATD7uZ8K5fC-39" value="category: string, req" style="text;strokeColor=#666666;fillColor=#f5f5f5;spacingLeft=4;spacingRight=4;overflow=hidden;rotatable=0;points=[[0,0.5],[1,0.5]];portConstraint=eastwest;fontSize=12;whiteSpace=wrap;html=1;fontColor=#333333;" vertex="1" parent="uAQ3JE1oHATD7uZ8K5fC-37">
          <mxGeometry y="56" width="160" height="30" as="geometry" />
        </mxCell>
        <mxCell id="uAQ3JE1oHATD7uZ8K5fC-40" value="description: string,req" style="text;strokeColor=#666666;fillColor=#f5f5f5;spacingLeft=4;spacingRight=4;overflow=hidden;rotatable=0;points=[[0,0.5],[1,0.5]];portConstraint=eastwest;fontSize=12;whiteSpace=wrap;html=1;fontColor=#333333;" vertex="1" parent="uAQ3JE1oHATD7uZ8K5fC-37">
          <mxGeometry y="86" width="160" height="30" as="geometry" />
        </mxCell>
        <mxCell id="uAQ3JE1oHATD7uZ8K5fC-42" value="Discuss" style="swimlane;fontStyle=0;childLayout=stackLayout;horizontal=1;startSize=26;horizontalStack=0;resizeParent=1;resizeParentMax=0;resizeLast=0;collapsible=1;marginBottom=0;align=center;fontSize=14;" vertex="1" parent="1">
          <mxGeometry x="265" y="240" width="160" height="146" as="geometry" />
        </mxCell>
        <mxCell id="uAQ3JE1oHATD7uZ8K5fC-43" value="_id: pk, auto" style="text;strokeColor=#666666;fillColor=#f5f5f5;spacingLeft=4;spacingRight=4;overflow=hidden;rotatable=0;points=[[0,0.5],[1,0.5]];portConstraint=eastwest;fontSize=12;whiteSpace=wrap;html=1;fontColor=#333333;" vertex="1" parent="uAQ3JE1oHATD7uZ8K5fC-42">
          <mxGeometry y="26" width="160" height="30" as="geometry" />
        </mxCell>
        <mxCell id="uAQ3JE1oHATD7uZ8K5fC-44" value="_userId:int, ObjectId" style="text;strokeColor=#666666;fillColor=#f5f5f5;spacingLeft=4;spacingRight=4;overflow=hidden;rotatable=0;points=[[0,0.5],[1,0.5]];portConstraint=eastwest;fontSize=12;whiteSpace=wrap;html=1;fontColor=#333333;" vertex="1" parent="uAQ3JE1oHATD7uZ8K5fC-42">
          <mxGeometry y="56" width="160" height="30" as="geometry" />
        </mxCell>
        <mxCell id="uAQ3JE1oHATD7uZ8K5fC-45" value="_productId: int, ObjectId" style="text;strokeColor=#666666;fillColor=#f5f5f5;spacingLeft=4;spacingRight=4;overflow=hidden;rotatable=0;points=[[0,0.5],[1,0.5]];portConstraint=eastwest;fontSize=12;whiteSpace=wrap;html=1;fontColor=#333333;" vertex="1" parent="uAQ3JE1oHATD7uZ8K5fC-42">
          <mxGeometry y="86" width="160" height="30" as="geometry" />
        </mxCell>
        <mxCell id="uAQ3JE1oHATD7uZ8K5fC-47" value="comment" style="text;strokeColor=#666666;fillColor=#f5f5f5;spacingLeft=4;spacingRight=4;overflow=hidden;rotatable=0;points=[[0,0.5],[1,0.5]];portConstraint=eastwest;fontSize=12;whiteSpace=wrap;html=1;fontColor=#333333;" vertex="1" parent="uAQ3JE1oHATD7uZ8K5fC-42">
          <mxGeometry y="116" width="160" height="30" as="geometry" />
        </mxCell>
        <mxCell id="uAQ3JE1oHATD7uZ8K5fC-48" style="edgeStyle=orthogonalEdgeStyle;rounded=0;orthogonalLoop=1;jettySize=auto;html=1;entryX=1;entryY=0.5;entryDx=0;entryDy=0;" edge="1" parent="1" source="uAQ3JE1oHATD7uZ8K5fC-19" target="uAQ3JE1oHATD7uZ8K5fC-45">
          <mxGeometry relative="1" as="geometry" />
        </mxCell>
        <mxCell id="uAQ3JE1oHATD7uZ8K5fC-49" style="edgeStyle=orthogonalEdgeStyle;rounded=0;orthogonalLoop=1;jettySize=auto;html=1;entryX=0;entryY=0.5;entryDx=0;entryDy=0;" edge="1" parent="1" source="uAQ3JE1oHATD7uZ8K5fC-2" target="uAQ3JE1oHATD7uZ8K5fC-44">
          <mxGeometry relative="1" as="geometry">
            <Array as="points">
              <mxPoint x="230" y="81" />
              <mxPoint x="230" y="311" />
            </Array>
          </mxGeometry>
        </mxCell>
        <mxCell id="uAQ3JE1oHATD7uZ8K5fC-50" value="Courier" style="swimlane;fontStyle=0;childLayout=stackLayout;horizontal=1;startSize=26;horizontalStack=0;resizeParent=1;resizeParentMax=0;resizeLast=0;collapsible=1;marginBottom=0;align=center;fontSize=14;" vertex="1" parent="1">
          <mxGeometry x="290" y="612" width="215.33" height="120" as="geometry" />
        </mxCell>
        <mxCell id="uAQ3JE1oHATD7uZ8K5fC-51" value="_id: pk, auto" style="text;strokeColor=#666666;fillColor=#f5f5f5;spacingLeft=4;spacingRight=4;overflow=hidden;rotatable=0;points=[[0,0.5],[1,0.5]];portConstraint=eastwest;fontSize=12;whiteSpace=wrap;html=1;fontColor=#333333;" vertex="1" parent="uAQ3JE1oHATD7uZ8K5fC-50">
          <mxGeometry y="26" width="215.33" height="34" as="geometry" />
        </mxCell>
        <mxCell id="uAQ3JE1oHATD7uZ8K5fC-52" value="courier: string, req" style="text;strokeColor=#666666;fillColor=#f5f5f5;spacingLeft=4;spacingRight=4;overflow=hidden;rotatable=0;points=[[0,0.5],[1,0.5]];portConstraint=eastwest;fontSize=12;whiteSpace=wrap;html=1;fontColor=#333333;" vertex="1" parent="uAQ3JE1oHATD7uZ8K5fC-50">
          <mxGeometry y="60" width="215.33" height="30" as="geometry" />
        </mxCell>
        <mxCell id="uAQ3JE1oHATD7uZ8K5fC-53" value="_idCourierService: int, ObjectId" style="text;strokeColor=#666666;fillColor=#f5f5f5;spacingLeft=4;spacingRight=4;overflow=hidden;rotatable=0;points=[[0,0.5],[1,0.5]];portConstraint=eastwest;fontSize=12;whiteSpace=wrap;html=1;fontColor=#333333;" vertex="1" parent="uAQ3JE1oHATD7uZ8K5fC-50">
          <mxGeometry y="90" width="215.33" height="30" as="geometry" />
        </mxCell>
        <mxCell id="uAQ3JE1oHATD7uZ8K5fC-55" value="Courier Services" style="swimlane;fontStyle=0;childLayout=stackLayout;horizontal=1;startSize=26;horizontalStack=0;resizeParent=1;resizeParentMax=0;resizeLast=0;collapsible=1;marginBottom=0;align=center;fontSize=14;" vertex="1" parent="1">
          <mxGeometry x="50" y="556" width="160" height="176" as="geometry" />
        </mxCell>
        <mxCell id="uAQ3JE1oHATD7uZ8K5fC-56" value="_id: pk, auto" style="text;strokeColor=#666666;fillColor=#f5f5f5;spacingLeft=4;spacingRight=4;overflow=hidden;rotatable=0;points=[[0,0.5],[1,0.5]];portConstraint=eastwest;fontSize=12;whiteSpace=wrap;html=1;fontColor=#333333;" vertex="1" parent="uAQ3JE1oHATD7uZ8K5fC-55">
          <mxGeometry y="26" width="160" height="30" as="geometry" />
        </mxCell>
        <mxCell id="uAQ3JE1oHATD7uZ8K5fC-57" value="name: string, req" style="text;strokeColor=#666666;fillColor=#f5f5f5;spacingLeft=4;spacingRight=4;overflow=hidden;rotatable=0;points=[[0,0.5],[1,0.5]];portConstraint=eastwest;fontSize=12;whiteSpace=wrap;html=1;fontColor=#333333;" vertex="1" parent="uAQ3JE1oHATD7uZ8K5fC-55">
          <mxGeometry y="56" width="160" height="30" as="geometry" />
        </mxCell>
        <mxCell id="uAQ3JE1oHATD7uZ8K5fC-58" value="description: string, req" style="text;strokeColor=#666666;fillColor=#f5f5f5;spacingLeft=4;spacingRight=4;overflow=hidden;rotatable=0;points=[[0,0.5],[1,0.5]];portConstraint=eastwest;fontSize=12;whiteSpace=wrap;html=1;fontColor=#333333;" vertex="1" parent="uAQ3JE1oHATD7uZ8K5fC-55">
          <mxGeometry y="86" width="160" height="30" as="geometry" />
        </mxCell>
        <mxCell id="uAQ3JE1oHATD7uZ8K5fC-60" value="etd: string,req" style="text;strokeColor=#666666;fillColor=#f5f5f5;spacingLeft=4;spacingRight=4;overflow=hidden;rotatable=0;points=[[0,0.5],[1,0.5]];portConstraint=eastwest;fontSize=12;whiteSpace=wrap;html=1;fontColor=#333333;" vertex="1" parent="uAQ3JE1oHATD7uZ8K5fC-55">
          <mxGeometry y="116" width="160" height="30" as="geometry" />
        </mxCell>
        <mxCell id="uAQ3JE1oHATD7uZ8K5fC-59" value="cost: number req" style="text;strokeColor=#666666;fillColor=#f5f5f5;spacingLeft=4;spacingRight=4;overflow=hidden;rotatable=0;points=[[0,0.5],[1,0.5]];portConstraint=eastwest;fontSize=12;whiteSpace=wrap;html=1;fontColor=#333333;" vertex="1" parent="uAQ3JE1oHATD7uZ8K5fC-55">
          <mxGeometry y="146" width="160" height="30" as="geometry" />
        </mxCell>
        <mxCell id="uAQ3JE1oHATD7uZ8K5fC-61" style="edgeStyle=orthogonalEdgeStyle;rounded=0;orthogonalLoop=1;jettySize=auto;html=1;" edge="1" parent="1" source="uAQ3JE1oHATD7uZ8K5fC-56" target="uAQ3JE1oHATD7uZ8K5fC-53">
          <mxGeometry relative="1" as="geometry" />
        </mxCell>
        <mxCell id="uAQ3JE1oHATD7uZ8K5fC-62" value="Transactions" style="swimlane;fontStyle=0;childLayout=stackLayout;horizontal=1;startSize=26;horizontalStack=0;resizeParent=1;resizeParentMax=0;resizeLast=0;collapsible=1;marginBottom=0;align=center;fontSize=14;" vertex="1" parent="1">
          <mxGeometry x="490" y="410" width="160" height="146" as="geometry" />
        </mxCell>
        <mxCell id="uAQ3JE1oHATD7uZ8K5fC-63" value="_id: int, ObjectId" style="text;strokeColor=#666666;fillColor=#f5f5f5;spacingLeft=4;spacingRight=4;overflow=hidden;rotatable=0;points=[[0,0.5],[1,0.5]];portConstraint=eastwest;fontSize=12;whiteSpace=wrap;html=1;fontColor=#333333;" vertex="1" parent="uAQ3JE1oHATD7uZ8K5fC-62">
          <mxGeometry y="26" width="160" height="30" as="geometry" />
        </mxCell>
        <mxCell id="uAQ3JE1oHATD7uZ8K5fC-64" value="date: date" style="text;strokeColor=#666666;fillColor=#f5f5f5;spacingLeft=4;spacingRight=4;overflow=hidden;rotatable=0;points=[[0,0.5],[1,0.5]];portConstraint=eastwest;fontSize=12;whiteSpace=wrap;html=1;fontColor=#333333;" vertex="1" parent="uAQ3JE1oHATD7uZ8K5fC-62">
          <mxGeometry y="56" width="160" height="30" as="geometry" />
        </mxCell>
        <mxCell id="uAQ3JE1oHATD7uZ8K5fC-65" value="_userId: int, ObjectId" style="text;strokeColor=#666666;fillColor=#f5f5f5;spacingLeft=4;spacingRight=4;overflow=hidden;rotatable=0;points=[[0,0.5],[1,0.5]];portConstraint=eastwest;fontSize=12;whiteSpace=wrap;html=1;fontColor=#333333;" vertex="1" parent="uAQ3JE1oHATD7uZ8K5fC-62">
          <mxGeometry y="86" width="160" height="30" as="geometry" />
        </mxCell>
        <mxCell id="uAQ3JE1oHATD7uZ8K5fC-70" value="qty: number, req" style="text;strokeColor=#666666;fillColor=#f5f5f5;spacingLeft=4;spacingRight=4;overflow=hidden;rotatable=0;points=[[0,0.5],[1,0.5]];portConstraint=eastwest;fontSize=12;whiteSpace=wrap;html=1;fontColor=#333333;" vertex="1" parent="uAQ3JE1oHATD7uZ8K5fC-62">
          <mxGeometry y="116" width="160" height="30" as="geometry" />
        </mxCell>
        <mxCell id="uAQ3JE1oHATD7uZ8K5fC-66" value="Transaction Details" style="swimlane;fontStyle=0;childLayout=stackLayout;horizontal=1;startSize=26;horizontalStack=0;resizeParent=1;resizeParentMax=0;resizeLast=0;collapsible=1;marginBottom=0;align=center;fontSize=14;" vertex="1" parent="1">
          <mxGeometry x="760" y="404" width="160" height="146" as="geometry" />
        </mxCell>
        <mxCell id="uAQ3JE1oHATD7uZ8K5fC-67" value="_id: int, ObjectId" style="text;strokeColor=#666666;fillColor=#f5f5f5;spacingLeft=4;spacingRight=4;overflow=hidden;rotatable=0;points=[[0,0.5],[1,0.5]];portConstraint=eastwest;fontSize=12;whiteSpace=wrap;html=1;fontColor=#333333;" vertex="1" parent="uAQ3JE1oHATD7uZ8K5fC-66">
          <mxGeometry y="26" width="160" height="30" as="geometry" />
        </mxCell>
        <mxCell id="uAQ3JE1oHATD7uZ8K5fC-68" value="_transactionId: int, ObjectId" style="text;strokeColor=#666666;fillColor=#f5f5f5;spacingLeft=4;spacingRight=4;overflow=hidden;rotatable=0;points=[[0,0.5],[1,0.5]];portConstraint=eastwest;fontSize=12;whiteSpace=wrap;html=1;fontColor=#333333;" vertex="1" parent="uAQ3JE1oHATD7uZ8K5fC-66">
          <mxGeometry y="56" width="160" height="30" as="geometry" />
        </mxCell>
        <mxCell id="uAQ3JE1oHATD7uZ8K5fC-69" value="_productId: int, ObjectId" style="text;strokeColor=#666666;fillColor=#f5f5f5;spacingLeft=4;spacingRight=4;overflow=hidden;rotatable=0;points=[[0,0.5],[1,0.5]];portConstraint=eastwest;fontSize=12;whiteSpace=wrap;html=1;fontColor=#333333;" vertex="1" parent="uAQ3JE1oHATD7uZ8K5fC-66">
          <mxGeometry y="86" width="160" height="30" as="geometry" />
        </mxCell>
        <mxCell id="uAQ3JE1oHATD7uZ8K5fC-71" value="subtotal:int, req" style="text;strokeColor=#666666;fillColor=#f5f5f5;spacingLeft=4;spacingRight=4;overflow=hidden;rotatable=0;points=[[0,0.5],[1,0.5]];portConstraint=eastwest;fontSize=12;whiteSpace=wrap;html=1;fontColor=#333333;" vertex="1" parent="uAQ3JE1oHATD7uZ8K5fC-66">
          <mxGeometry y="116" width="160" height="30" as="geometry" />
        </mxCell>
        <mxCell id="uAQ3JE1oHATD7uZ8K5fC-74" style="edgeStyle=orthogonalEdgeStyle;rounded=0;orthogonalLoop=1;jettySize=auto;html=1;" edge="1" parent="1" source="uAQ3JE1oHATD7uZ8K5fC-2" target="uAQ3JE1oHATD7uZ8K5fC-65">
          <mxGeometry relative="1" as="geometry">
            <Array as="points">
              <mxPoint x="230" y="81" />
              <mxPoint x="230" y="511" />
            </Array>
          </mxGeometry>
        </mxCell>
        <mxCell id="uAQ3JE1oHATD7uZ8K5fC-75" style="edgeStyle=orthogonalEdgeStyle;rounded=0;orthogonalLoop=1;jettySize=auto;html=1;entryX=0;entryY=0.5;entryDx=0;entryDy=0;" edge="1" parent="1" source="uAQ3JE1oHATD7uZ8K5fC-19" target="uAQ3JE1oHATD7uZ8K5fC-69">
          <mxGeometry relative="1" as="geometry" />
        </mxCell>
        <mxCell id="uAQ3JE1oHATD7uZ8K5fC-76" style="edgeStyle=orthogonalEdgeStyle;rounded=0;orthogonalLoop=1;jettySize=auto;html=1;entryX=0;entryY=0.5;entryDx=0;entryDy=0;" edge="1" parent="1" source="uAQ3JE1oHATD7uZ8K5fC-63" target="uAQ3JE1oHATD7uZ8K5fC-68">
          <mxGeometry relative="1" as="geometry">
            <Array as="points">
              <mxPoint x="720" y="451" />
              <mxPoint x="720" y="475" />
            </Array>
          </mxGeometry>
        </mxCell>
      </root>
    </mxGraphModel>
  </diagram>
</mxfile>
